
        <svg xmlns="http://www.w3.org/2000/svg" xmlns:xlink="http://www.w3.org/1999/xlink" version="1.1" width="3147.783251231527" 
        height="1093.5960591133005" viewBox="0 0 3147.783251231527 1093.5960591133005">
			
			<g transform="scale(7.389162561576355) translate(10, 10)">
				<defs id="SvgjsDefs1060"></defs><g id="SvgjsG1061" featureKey="symbolFeature-0" transform="matrix(1.0146331856192028,0,0,1.0146331856192028,-9.811032714357747,12.789736231436928)" fill="#ffffff"><title xmlns="http://www.w3.org/2000/svg">jcarcor_icon_Consultant All Sectors</title><path xmlns="http://www.w3.org/2000/svg" d="M61.87,68H59.13a9.13,9.13,0,0,0-18.26,0H38.13a11.87,11.87,0,0,1,23.74,0Z"></path><path xmlns="http://www.w3.org/2000/svg" d="M61.49,46.5h.88a12.37,12.37,0,0,0-24.74,0h2.74a9.63,9.63,0,0,1,19.07-1.87,1.07,1.07,0,0,0-.16.25,5.17,5.17,0,0,1-.46.69,8.88,8.88,0,1,0-.49,4A8.82,8.82,0,0,0,61.49,46.5ZM50,52.63a6.13,6.13,0,1,1,6.13-6.13A6.23,6.23,0,0,1,56,47.65a17.93,17.93,0,0,1-5.62,1.48,1.37,1.37,0,0,0,.1,2.74h.1a20.38,20.38,0,0,0,3.17-.55A6.07,6.07,0,0,1,50,52.63Z"></path><path xmlns="http://www.w3.org/2000/svg" d="M51.62,76.24V71.5a1.37,1.37,0,1,0-2.74,0v4.74a9.37,9.37,0,1,0,2.74,0ZM50.25,92.13a6.63,6.63,0,1,1,6.63-6.63A6.64,6.64,0,0,1,50.25,92.13Z"></path><path xmlns="http://www.w3.org/2000/svg" d="M59.12,15.5a9.37,9.37,0,1,0-10.74,9.26V29.5a1.37,1.37,0,0,0,2.74,0V24.76A9.38,9.38,0,0,0,59.12,15.5Zm-9.37,6.63a6.63,6.63,0,1,1,6.63-6.63A6.64,6.64,0,0,1,49.75,22.13Z"></path><path xmlns="http://www.w3.org/2000/svg" d="M32,39.68l-4.19-2.22a9.33,9.33,0,1,0-8.84,6.26,9.4,9.4,0,0,0,2.77-.42,9.29,9.29,0,0,0,4.78-3.41l4.19,2.22a1.51,1.51,0,0,0,.64.16A1.38,1.38,0,0,0,32,39.68Zm-11.07,1A6.63,6.63,0,1,1,17,28a6.57,6.57,0,0,1,5.05.47h0a6.62,6.62,0,0,1,2.76,9h0A6.59,6.59,0,0,1,20.9,40.68Z"></path><path xmlns="http://www.w3.org/2000/svg" d="M90,63.9a9.36,9.36,0,0,0-16.5-2.79l-4.19-2.22A1.38,1.38,0,1,0,68,61.32l4.19,2.22A9.36,9.36,0,0,0,81,76,9.38,9.38,0,0,0,90,63.9Zm-3.1,5.86a6.64,6.64,0,0,1-9,2.76h0a6.62,6.62,0,0,1-2.76-9h0a6.63,6.63,0,0,1,11.72,6.2Z"></path><path xmlns="http://www.w3.org/2000/svg" d="M33.22,60.69a1.37,1.37,0,0,0-1.88-.48l-4.08,2.41A9.37,9.37,0,0,0,11.91,73.27,9.37,9.37,0,0,0,28.66,65l4.08-2.41A1.37,1.37,0,0,0,33.22,60.69ZM23.35,74.21A6.62,6.62,0,1,1,20,61.87a6.33,6.33,0,0,1,1.67.22,6.63,6.63,0,0,1,1.71,12.12Z"></path><path xmlns="http://www.w3.org/2000/svg" d="M88.09,27.73A9.37,9.37,0,0,0,71.34,36l-4.08,2.41a1.37,1.37,0,0,0,1.4,2.36l4.08-2.41a9.26,9.26,0,0,0,4.94,3.19,9.47,9.47,0,0,0,2.35.3,9.38,9.38,0,0,0,8.06-14.14Zm-1.66,6.42A6.61,6.61,0,1,1,80,25.86a6.33,6.33,0,0,1,1.67.22,6.63,6.63,0,0,1,4.76,8.07Z"></path></g><g id="SvgjsG1062" featureKey="textGroupContainer" transform="matrix(1,0,0,1,405,0)" fill="#ffffff"><rect xmlns="http://www.w3.org/2000/svg" y="0" height="1" width="1" opacity="0"></rect><rect xmlns="http://www.w3.org/2000/svg" y="0" x="-303" width="3" height="128"></rect></g><g id="SvgjsG1063" featureKey="vMvB0T-0" transform="matrix(2.8925885358246735,0,0,2.8925885358246735,119.47933447389144,14.23950263835765)" fill="#ffffff"><path d="M4.84 17.14 q-0.54 0 -0.8 -0.02 l-0.86 2.9 q-0.48 0.12 -1.34 0.12 q-0.96 0 -1.56 -0.22 l-0.1 -0.16 l4.4 -13.42 q0.78 -0.12 1.82 -0.12 q1.18 0 1.88 0.14 l4.32 13.44 q-0.7 0.38 -1.58 0.38 q-1.04 0 -1.46 -0.36 t-0.72 -1.38 l-0.38 -1.32 q-0.26 0.02 -0.78 0.02 l-2.84 0 z M4.78 14.620000000000001 l0.8 -0.02 l1.46 0 q0.1 0 0.35 0.01 t0.37 0.01 l-0.34 -1.24 q-0.48 -1.68 -1.1 -4.12 l-0.12 0 q-0.16 0.86 -0.96 3.82 z M14.32 20 l0 -13.66 q0.62 -0.12 1.6 -0.12 t1.62 0.12 l0 13.66 q-0.64 0.12 -1.62 0.12 t-1.6 -0.12 z M28.16 15.96 l-0.02 1.44 l0 0.02 q0.92 -0.04 1.48 -0.04 l4.64 0 q0 0.74 -0.06 1.14 q-0.24 1.54 -2.04 1.54 l-5.32 0 q-0.86 0 -1.35 -0.5 t-0.49 -1.36 l0 -11.72 l0.14 -0.14 l8.62 0 q0.12 0.58 0.12 1.26 t-0.28 1.42 l-5.46 0 l0.02 1.44 l0 1.4 q0.52 -0.02 1.36 -0.02 l3.06 0 q0.18 0.56 0.18 1.28 t-0.18 1.32 l-4.42 0 l0 1.52 z M43.620000000000005 6.34 q0.5 -0.12 1.34 -0.12 q0.96 0 1.66 0.28 l0.08 0.14 l-3.76 6.18 l4.18 6.68 q-1.06 0.7 -1.9 0.7 q-0.88 0 -1.34 -0.28 t-0.92 -0.98 l-2.08 -3.36 l-2.62 4.42 q-0.5 0.12 -1.38 0.12 t-1.68 -0.28 l-0.08 -0.16 l4.12 -6.72 l-3.8 -6.12 q1.06 -0.7 1.9 -0.7 q0.88 0 1.33 0.28 t0.89 0.98 l1.76 2.84 z M53.58 15.719999999999999 l-1.58 0 l0 4.28 q-0.64 0.12 -1.6 0.12 q-0.98 0 -1.6 -0.12 l0 -13.56 l0.14 -0.14 q1.74 -0.04 2.89 -0.06 t1.75 -0.02 q1.1 0 2.01 0.3 t1.55 0.9 t0.99 1.49 t0.35 2.05 t-0.36 2.05 t-1 1.49 t-1.55 0.91 t-1.99 0.31 z M52 8.66 l0 4.66 q0.56 -0.02 0.89 -0.03 t0.43 -0.01 q0.54 0 0.9 -0.19 t0.58 -0.5 t0.32 -0.73 t0.1 -0.88 q0 -0.44 -0.1 -0.86 t-0.31 -0.74 t-0.55 -0.51 t-0.8 -0.19 l-0.82 0 t-0.64 -0.02 z M63.72 15.96 l-0.02 1.44 l0 0.02 q0.92 -0.04 1.48 -0.04 l4.64 0 q0 0.74 -0.06 1.14 q-0.24 1.54 -2.04 1.54 l-5.32 0 q-0.86 0 -1.35 -0.5 t-0.49 -1.36 l0 -11.72 l0.14 -0.14 l8.62 0 q0.12 0.58 0.12 1.26 t-0.28 1.42 l-5.46 0 l0.02 1.44 l0 1.4 q0.52 -0.02 1.36 -0.02 l3.06 0 q0.18 0.56 0.18 1.28 t-0.18 1.32 l-4.42 0 l0 1.52 z M81.84 10.56 q0 0.66 -0.2 1.25 t-0.53 1.06 t-0.78 0.82 t-0.93 0.53 q1.04 0.38 1.54 1.84 l0.6 1.7 q0.34 1 1 1.48 q-0.3 0.4 -0.9 0.67 t-1.32 0.27 t-1.12 -0.41 t-0.74 -1.43 l-0.72 -2.1 q-0.22 -0.6 -0.59 -0.92 t-1.11 -0.32 l-0.82 0 l0 5 q-0.64 0.12 -1.6 0.12 t-1.58 -0.12 l0 -13.56 l0.14 -0.14 q1.74 -0.04 2.93 -0.06 t1.87 -0.02 q1.1 0 2 0.27 t1.53 0.81 t0.98 1.36 t0.35 1.9 z M75.22000000000001 8.62 l0 3.92 q0.9 0 1.54 -0.03 t1.03 -0.24 t0.59 -0.59 t0.2 -1.1 q0 -1.94 -1.88 -1.94 l-0.83 0 t-0.65 -0.02 z M89.32000000000001 8.98 l0.02 1.48 l0 9.54 q-0.68 0.12 -1.62 0.12 t-1.58 -0.12 l0 -11.02 l-1.28 0.02 l-2.06 0 q-0.12 -0.58 -0.12 -1.33 t0.12 -1.33 l9.9 0 q0.16 0.52 0.16 1.26 t-0.4 1.07 t-1.28 0.33 l-0.58 0 l-1.26 -0.02 l-0.02 0 z"></path></g><g id="SvgjsG1064" featureKey="sloganFeature-0" transform="matrix(0.9021283188689947,0,0,0.9021283188689947,125.62876508006792,85.55114541861303)" fill="#ffffff"><path d="M9.02 11.64 l-0.02 -1.48 l0 -3.82 q0.62 -0.12 1.61 -0.12 t1.59 0.12 l0 13.66 q-0.64 0.12 -1.6 0.12 t-1.6 -0.12 l0 -4.24 l0.02 -1.48 l-1 0.02 l-2.32 0 l-1 -0.02 l0.02 1.48 l0 4.24 q-0.62 0.12 -1.6 0.12 t-1.6 -0.12 l0 -13.66 q0.62 -0.12 1.6 -0.12 t1.6 0.12 l0 3.82 l-0.02 1.48 l1 -0.02 l2.32 0 z M23.612 9.72 l1.34 -3.38 q0.52 -0.12 1.34 -0.12 q0.88 0 1.52 0.24 l0.14 0.16 l-3.88 9.18 l0 4.2 q-0.62 0.12 -1.6 0.12 t-1.6 -0.12 l0 -4.28 l-3.86 -9 q0.92 -0.54 1.76 -0.54 t1.21 0.29 t0.65 0.99 l0.96 2.38 q0.52 1.28 0.9 2.86 l0.12 0 q0.32 -1.26 1 -2.98 z M37.524 15.719999999999999 l-1.58 0 l0 4.28 q-0.64 0.12 -1.6 0.12 q-0.98 0 -1.6 -0.12 l0 -13.56 l0.14 -0.14 q1.74 -0.04 2.89 -0.06 t1.75 -0.02 q1.1 0 2.01 0.3 t1.55 0.9 t0.99 1.49 t0.35 2.05 t-0.36 2.05 t-1 1.49 t-1.55 0.91 t-1.99 0.31 z M35.944 8.66 l0 4.66 q0.56 -0.02 0.89 -0.03 t0.43 -0.01 q0.54 0 0.9 -0.19 t0.58 -0.5 t0.32 -0.73 t0.1 -0.88 q0 -0.44 -0.1 -0.86 t-0.31 -0.74 t-0.55 -0.51 t-0.8 -0.19 l-0.82 0 t-0.64 -0.02 z M50.995999999999995 15.96 l-0.02 1.44 l0 0.02 q0.92 -0.04 1.48 -0.04 l4.64 0 q0 0.74 -0.06 1.14 q-0.24 1.54 -2.04 1.54 l-5.32 0 q-0.86 0 -1.35 -0.5 t-0.49 -1.36 l0 -11.72 l0.14 -0.14 l8.62 0 q0.12 0.58 0.12 1.26 t-0.28 1.42 l-5.46 0 l0.02 1.44 l0 1.4 q0.52 -0.02 1.36 -0.02 l3.06 0 q0.18 0.56 0.18 1.28 t-0.18 1.32 l-4.42 0 l0 1.52 z M72.44800000000001 10.56 q0 0.66 -0.2 1.25 t-0.53 1.06 t-0.78 0.82 t-0.93 0.53 q1.04 0.38 1.54 1.84 l0.6 1.7 q0.34 1 1 1.48 q-0.3 0.4 -0.9 0.67 t-1.32 0.27 t-1.12 -0.41 t-0.74 -1.43 l-0.72 -2.1 q-0.22 -0.6 -0.59 -0.92 t-1.11 -0.32 l-0.82 0 l0 5 q-0.64 0.12 -1.6 0.12 t-1.58 -0.12 l0 -13.56 l0.14 -0.14 q1.74 -0.04 2.93 -0.06 t1.87 -0.02 q1.1 0 2 0.27 t1.53 0.81 t0.98 1.36 t0.35 1.9 z M65.828 8.62 l0 3.92 q0.9 0 1.54 -0.03 t1.03 -0.24 t0.59 -0.59 t0.2 -1.1 q0 -1.94 -1.88 -1.94 l-0.83 0 t-0.65 -0.02 z M83.3 12.24 l3.14 -0.02 q2.12 0 2.12 2 l0 5.26 q-2.58 0.82 -5.42 0.82 q-1.44 0 -2.55 -0.48 t-1.86 -1.38 t-1.13 -2.21 t-0.38 -2.97 q0 -1.82 0.53 -3.17 t1.42 -2.25 t2.05 -1.35 t2.42 -0.45 q2.6 0 4.88 1.44 q-0.02 0.32 -0.15 0.65 t-0.32 0.64 t-0.44 0.56 t-0.51 0.43 q-1.66 -1.08 -3.36 -1.08 q-3.26 0 -3.26 4.56 q0 4.54 3.34 4.54 q0.46 0 0.89 -0.04 t0.85 -0.12 l0 -1.34 q0 -0.46 0.01 -0.8 t0.03 -0.58 l-1 0 q-0.86 0 -1.19 -0.33 t-0.33 -1.03 q0 -0.6 0.22 -1.3 z M104.232 10.56 q0 0.66 -0.2 1.25 t-0.53 1.06 t-0.78 0.82 t-0.93 0.53 q1.04 0.38 1.54 1.84 l0.6 1.7 q0.34 1 1 1.48 q-0.3 0.4 -0.9 0.67 t-1.32 0.27 t-1.12 -0.41 t-0.74 -1.43 l-0.72 -2.1 q-0.22 -0.6 -0.59 -0.92 t-1.11 -0.32 l-0.82 0 l0 5 q-0.64 0.12 -1.6 0.12 t-1.58 -0.12 l0 -13.56 l0.14 -0.14 q1.74 -0.04 2.93 -0.06 t1.87 -0.02 q1.1 0 2 0.27 t1.53 0.81 t0.98 1.36 t0.35 1.9 z M97.61200000000001 8.62 l0 3.92 q0.9 0 1.54 -0.03 t1.03 -0.24 t0.59 -0.59 t0.2 -1.1 q0 -1.94 -1.88 -1.94 l-0.83 0 t-0.65 -0.02 z M112.76400000000001 16.28 q0.54 1.56 2.18 1.56 q0.82 0 1.33 -0.41 t0.8 -1.04 t0.39 -1.41 t0.1 -1.54 q0 -0.7 -0.05 -1.56 t-0.29 -1.61 t-0.76 -1.26 t-1.52 -0.51 q-0.96 0 -1.47 0.49 t-0.76 1.21 t-0.31 1.53 t-0.06 1.43 q0 0.92 0.09 1.64 t0.33 1.48 z M111.144 19.04 q-2.14 -1.78 -2.14 -5.86 q0 -1.76 0.41 -3.09 t1.18 -2.23 t1.87 -1.36 t2.48 -0.46 t2.49 0.46 t1.88 1.37 t1.18 2.24 t0.41 3.07 t-0.41 3.07 t-1.18 2.23 t-1.88 1.36 t-2.49 0.46 q-2.28 0 -3.8 -1.26 z M127.616 18.68 l-2.36 -12.16 q0.96 -0.36 1.7 -0.36 q0.84 0 1.22 0.37 t0.54 1.39 l0.84 5.16 q0.38 2.32 0.48 3.24 t0.13 0.96 t0.13 0.04 l1.66 -10.72 q0.74 -0.14 2.06 -0.14 t2.04 0.14 l1.52 10.46 q0.02 0.18 0.07 0.22 t0.15 0.04 q0.18 -1.88 0.6 -4.26 l1.12 -6.72 q0.58 -0.12 1.34 -0.12 q0.92 0 1.62 0.22 l0.14 0.18 l-2.64 13.36 q-1.3 0.14 -2.44 0.14 t-1.62 -0.28 t-0.62 -1.16 l-0.68 -4.34 q-0.36 -2.36 -0.58 -4.64 l-0.14 0 q-0.22 1.94 -0.66 4.64 l-0.9 5.64 q-1.36 0.14 -2.47 0.14 t-1.59 -0.28 t-0.66 -1.16 z M153.048 8.98 l0.02 1.48 l0 9.54 q-0.68 0.12 -1.62 0.12 t-1.58 -0.12 l0 -11.02 l-1.28 0.02 l-2.06 0 q-0.12 -0.58 -0.12 -1.33 t0.12 -1.33 l9.9 0 q0.16 0.52 0.16 1.26 t-0.4 1.07 t-1.28 0.33 l-0.58 0 l-1.26 -0.02 l-0.02 0 z M168.90000000000003 11.64 l-0.02 -1.48 l0 -3.82 q0.62 -0.12 1.61 -0.12 t1.59 0.12 l0 13.66 q-0.64 0.12 -1.6 0.12 t-1.6 -0.12 l0 -4.24 l0.02 -1.48 l-1 0.02 l-2.32 0 l-1 -0.02 l0.02 1.48 l0 4.24 q-0.62 0.12 -1.6 0.12 t-1.6 -0.12 l0 -13.66 q0.62 -0.12 1.6 -0.12 t1.6 0.12 l0 3.82 l-0.02 1.48 l1 -0.02 l2.32 0 z M187.324 18.68 l-2.36 -12.16 q0.96 -0.36 1.7 -0.36 q0.84 0 1.22 0.37 t0.54 1.39 l0.84 5.16 q0.38 2.32 0.48 3.24 t0.13 0.96 t0.13 0.04 l1.66 -10.72 q0.74 -0.14 2.06 -0.14 t2.04 0.14 l1.52 10.46 q0.02 0.18 0.07 0.22 t0.15 0.04 q0.18 -1.88 0.6 -4.26 l1.12 -6.72 q0.58 -0.12 1.34 -0.12 q0.92 0 1.62 0.22 l0.14 0.18 l-2.64 13.36 q-1.3 0.14 -2.44 0.14 t-1.62 -0.28 t-0.62 -1.16 l-0.68 -4.34 q-0.36 -2.36 -0.58 -4.64 l-0.14 0 q-0.22 1.94 -0.66 4.64 l-0.9 5.64 q-1.36 0.14 -2.47 0.14 t-1.59 -0.28 t-0.66 -1.16 z M207.616 20 l0 -13.66 q0.62 -0.12 1.6 -0.12 t1.62 0.12 l0 13.66 q-0.64 0.12 -1.62 0.12 t-1.6 -0.12 z M222.428 8.98 l0.02 1.48 l0 9.54 q-0.68 0.12 -1.62 0.12 t-1.58 -0.12 l0 -11.02 l-1.28 0.02 l-2.06 0 q-0.12 -0.58 -0.12 -1.33 t0.12 -1.33 l9.9 0 q0.16 0.52 0.16 1.26 t-0.4 1.07 t-1.28 0.33 l-0.58 0 l-1.26 -0.02 l-0.02 0 z M238.28000000000003 11.64 l-0.02 -1.48 l0 -3.82 q0.62 -0.12 1.61 -0.12 t1.59 0.12 l0 13.66 q-0.64 0.12 -1.6 0.12 t-1.6 -0.12 l0 -4.24 l0.02 -1.48 l-1 0.02 l-2.32 0 l-1 -0.02 l0.02 1.48 l0 4.24 q-0.62 0.12 -1.6 0.12 t-1.6 -0.12 l0 -13.66 q0.62 -0.12 1.6 -0.12 t1.6 0.12 l0 3.82 l-0.02 1.48 l1 -0.02 l2.32 0 z M258.884 17.14 q-0.54 0 -0.8 -0.02 l-0.86 2.9 q-0.48 0.12 -1.34 0.12 q-0.96 0 -1.56 -0.22 l-0.1 -0.16 l4.4 -13.42 q0.78 -0.12 1.82 -0.12 q1.18 0 1.88 0.14 l4.32 13.44 q-0.7 0.38 -1.58 0.38 q-1.04 0 -1.46 -0.36 t-0.72 -1.38 l-0.38 -1.32 q-0.26 0.02 -0.78 0.02 l-2.84 0 z M258.824 14.620000000000001 l0.8 -0.02 l1.46 0 q0.1 0 0.35 0.01 t0.37 0.01 l-0.34 -1.24 q-0.48 -1.68 -1.1 -4.12 l-0.12 0 q-0.16 0.86 -0.96 3.82 z M271.696 20 l0 -13.66 q0.62 -0.12 1.6 -0.12 t1.62 0.12 l0 13.66 q-0.64 0.12 -1.62 0.12 t-1.6 -0.12 z"></path></g>
			</g>
		</svg>
	